<svg width="20" height="20" viewBox="0 0 20 20" fill="none" xmlns="http://www.w3.org/2000/svg">
<path d="M19.5092 13.2217C19.2017 12.8658 18.7867 12.6325 18.3333 12.5433V12.0833C18.3333 10.0158 16.6508 8.33333 14.5833 8.33333C12.5158 8.33333 10.8333 10.0158 10.8333 12.0833V12.5433C10.38 12.6325 9.965 12.8658 9.6575 13.2217C9.26167 13.68 9.085 14.2867 9.1725 14.8858L9.60917 17.8633C9.78833 19.0817 10.8517 20 12.0825 20H17.0825C18.3133 20 19.3767 19.0817 19.5558 17.8633L19.9925 14.8858C20.08 14.2867 19.9042 13.68 19.5075 13.2217H19.5092ZM14.5833 10C15.7317 10 16.6667 10.935 16.6667 12.0833V12.5H12.5V12.0833C12.5 10.935 13.435 10 14.5833 10ZM17.9083 17.6208C17.8483 18.0267 17.4942 18.3333 17.0833 18.3333H12.0833C11.6725 18.3333 11.3183 18.0267 11.2583 17.6217L10.8217 14.6442C10.7975 14.48 10.8725 14.365 10.9192 14.3108C10.9658 14.2575 11.0683 14.1667 11.2342 14.1667H17.9333C18.0992 14.1667 18.2017 14.2567 18.2483 14.3108C18.295 14.365 18.37 14.48 18.3458 14.6442L17.9083 17.6208ZM3.33333 3.75C3.33333 3.06 3.89333 2.5 4.58333 2.5C5.27333 2.5 5.83333 3.06 5.83333 3.75C5.83333 4.44 5.27333 5 4.58333 5C3.89333 5 3.33333 4.44 3.33333 3.75ZM6.66667 3.75C6.66667 3.06 7.22667 2.5 7.91667 2.5C8.60667 2.5 9.16667 3.06 9.16667 3.75C9.16667 4.44 8.60667 5 7.91667 5C7.22667 5 6.66667 4.44 6.66667 3.75ZM6.66667 16.6667H4.16667C2.78833 16.6667 1.66667 15.545 1.66667 14.1667V7.5H18.3333V8.33333C18.3333 8.79333 18.7067 9.16667 19.1667 9.16667C19.6267 9.16667 20 8.79333 20 8.33333V4.16667C20 1.86917 18.1308 0 15.8333 0H4.16667C1.86917 0 0 1.86917 0 4.16667V14.1667C0 16.4642 1.86917 18.3333 4.16667 18.3333H6.66667C7.12667 18.3333 7.5 17.96 7.5 17.5C7.5 17.04 7.12667 16.6667 6.66667 16.6667ZM4.16667 1.66667H15.8333C17.2117 1.66667 18.3333 2.78833 18.3333 4.16667V5.83333H1.66667V4.16667C1.66667 2.78833 2.78833 1.66667 4.16667 1.66667Z" fill="#A0B8D1"/>
</svg>
