<svg viewBox="9.6373 9.864059999999998 37.30202 36.96188" xmlns="http://www.w3.org/2000/svg" style="max-height: 500px" width="37.30202" height="36.96188"><defs><style>.cls-1{fill:none;}.cls-2{fill:#fff;}</style></defs><g data-name="Layer 2" id="Layer_2"><g data-name="Layer 1" id="Layer_1-2"><rect height="56.69" width="56.69" class="cls-1"/><path d="M46.59,38.12a.61.61,0,0,1,0-.64Z" class="cls-2"/><path d="M37.48,46.59a.53.53,0,0,1,.57,0Z" class="cls-2"/><path d="M15,46.59a.31.31,0,0,1,.43,0Z" class="cls-2"/><path d="M36.82,24.58l2.38-2.39c.19-.2.34-.23.53,0l.35.35a1.18,1.18,0,0,0,2-.22c.05-.09.11-.18.17-.27l4-6.71a2.78,2.78,0,0,0,.36-.76v-.5a1.37,1.37,0,0,0-.45-.85c-.9-.87-1.77-1.75-2.65-2.63a1.34,1.34,0,0,0-1.82-.23l-3.21,1.92c-1.36.82-2.74,1.61-4.08,2.46a1.15,1.15,0,0,0-.23,1.86c.13.14.26.28.4.41s.2.33,0,.53Q32,20.09,29.43,22.67c-.22.21-.36.19-.56,0q-.77-.8-1.56-1.56a.62.62,0,0,1-.19-.64,7.33,7.33,0,0,0,.2-1.62,8.65,8.65,0,0,0-6.39-8.49,9.66,9.66,0,0,0-2.68-.23,7.61,7.61,0,0,0-3.67,1A1.11,1.11,0,0,0,14,12a1.19,1.19,0,0,0,.41,1C15.6,14.2,16.79,15.4,18,16.6a2.6,2.6,0,0,1,.47.58.92.92,0,0,1-.16,1.14.94.94,0,0,1-1.12.15A2.91,2.91,0,0,1,16.6,18L13,14.4a1.15,1.15,0,0,0-2,.31,7.29,7.29,0,0,0-.91,3.22,10.26,10.26,0,0,0,.13,2.65,8.33,8.33,0,0,0,2.4,4.28,8.59,8.59,0,0,0,6,2.47,8.5,8.5,0,0,0,2-.24c.34-.07.51.17.66.38s-.09.32-.2.46a1.45,1.45,0,0,1-.17.18l-9,9a9.18,9.18,0,0,0-1,1.23,5.21,5.21,0,0,0-.78,3.37,5,5,0,0,0,1.76,3.6,4.84,4.84,0,0,0,2.9,1.28H15a.54.54,0,0,1,.43,0h.71a7.35,7.35,0,0,0,1.14-.2,5.84,5.84,0,0,0,2.3-1.51l9.23-9.23a.46.46,0,0,1,.84.2.9.9,0,0,1,0,.46,8.29,8.29,0,0,0,.09,3.9,8.56,8.56,0,0,0,5.12,5.86,6.85,6.85,0,0,0,2.23.52h.43a.92.92,0,0,1,.57,0h.85a.13.13,0,0,1,.1,0,6.6,6.6,0,0,0,3.14-.91,1.12,1.12,0,0,0,.62-1,1.22,1.22,0,0,0-.42-.94l-3.6-3.59a2.56,2.56,0,0,1-.46-.58.92.92,0,0,1,.16-1.14.93.93,0,0,1,1.12-.14,2.86,2.86,0,0,1,.58.46l3.59,3.6a1.15,1.15,0,0,0,2-.33,7.36,7.36,0,0,0,.88-3v-.85a1.16,1.16,0,0,1,0-.64v-.36c-.07-.29,0-.6-.1-.9a8.61,8.61,0,0,0-10.18-6.6.67.67,0,0,1-.7-.22c-.49-.51-1-1-1.5-1.51-.29-.29-.29-.31,0-.6Zm5.35-11.91a.2.2,0,0,1,.3,0c.51.52,1,1,1.56,1.55.15.14.09.23,0,.36L40.81,20l-4.07-4.06ZM27.4,33.87,17.86,43.4a3.37,3.37,0,0,1-2.48,1,3.09,3.09,0,0,1-2.8-1.91A3,3,0,0,1,13,39.27c.16-.2.33-.38.5-.56l9.33-9.33c.18-.19.28-.23.48,0q2,2.05,4.07,4.08C27.57,33.61,27.58,33.69,27.4,33.87Zm7.17-2.29a1.44,1.44,0,0,0,1.57.42,6.21,6.21,0,0,1,6.32,1.45,6,6,0,0,1,2,5.08,5.71,5.71,0,0,1-.2,1.13L44,39.42c-.83-.83-1.65-1.67-2.49-2.49A3.19,3.19,0,0,0,37,36.71,3.23,3.23,0,0,0,36.51,41a16.44,16.44,0,0,0,1.15,1.21l2,2a5.74,5.74,0,0,1-3.31,0,6.21,6.21,0,0,1-4.52-4.76A5.73,5.73,0,0,1,32,36.23a1.5,1.5,0,0,0-.45-1.71q-4.71-4.65-9.36-9.36a1.42,1.42,0,0,0-1.56-.41,6.21,6.21,0,0,1-6.32-1.46,6,6,0,0,1-1.95-5.08,5,5,0,0,1,.05-.53c0-.19.09-.38.15-.64.18.2.34.37.51.54.88.85,1.68,1.78,2.62,2.56a3.19,3.19,0,0,0,4.24-.22,3.22,3.22,0,0,0,.26-4.24c-.48-.6-1.05-1.09-1.58-1.64s-1-1-1.49-1.48a5.71,5.71,0,0,1,3.31,0,6.3,6.3,0,0,1,4.51,4.83,5.86,5.86,0,0,1-.13,3.16,1.48,1.48,0,0,0,.44,1.71Q29.92,26.89,34.57,31.58Zm-2.25-5.66s-.09.13-.2.14L32,25.92c-.38-.38-.76-.77-1.16-1.15-.16-.15-.12-.22,0-.36,1.83-1.81,3.64-3.63,5.46-5.45.14-.14.22-.16.36,0,.37.4.76.78,1.15,1.16.16.14.13.22,0,.36Z" class="cls-2"/><path d="M16.82,41.27a1,1,0,0,1-1-.58,1,1,0,0,1,0-1.07,2.14,2.14,0,0,1,.28-.32l6.24-6.25a1.17,1.17,0,0,1,1-.43,1.06,1.06,0,0,1,.77,1.67,2.43,2.43,0,0,1-.26.3l-6.24,6.24A1.17,1.17,0,0,1,16.82,41.27Z" class="cls-2"/></g></g></svg>