<svg width="20" height="20" viewBox="0 0 20 20" fill="none" xmlns="http://www.w3.org/2000/svg">
<path d="M17.5112 8.34286C16.4776 6.72103 14.1265 4 10 4C5.87353 4 3.5224 6.72103 2.48878 8.34286C2.16925 8.84078 2 9.4146 2 10C2 10.5854 2.16925 11.1592 2.48878 11.6571C3.5224 13.279 5.87353 16 10 16C14.1265 16 16.4776 13.279 17.5112 11.6571C17.8307 11.1592 18 10.5854 18 10C18 9.4146 17.8307 8.84078 17.5112 8.34286ZM16.375 10.9849C15.4873 12.3756 13.478 14.7159 10 14.7159C6.52196 14.7159 4.5127 12.3756 3.62503 10.9849C3.43519 10.689 3.33464 10.3479 3.33464 10C3.33464 9.65209 3.43519 9.31105 3.62503 9.01509C4.5127 7.6244 6.52196 5.28411 10 5.28411C13.478 5.28411 15.4873 7.62183 16.375 9.01509C16.5648 9.31105 16.6654 9.65209 16.6654 10C16.6654 10.3479 16.5648 10.689 16.375 10.9849Z" fill="#3C3C43"/>
<path d="M10 7C9.40666 7 8.82664 7.17595 8.33329 7.50559C7.83994 7.83524 7.45543 8.30377 7.22836 8.85195C7.0013 9.40013 6.94189 10.0033 7.05765 10.5853C7.1734 11.1672 7.45912 11.7018 7.87868 12.1213C8.29824 12.5409 8.83279 12.8266 9.41473 12.9424C9.99667 13.0581 10.5999 12.9987 11.1481 12.7716C11.6962 12.5446 12.1648 12.1601 12.4944 11.6667C12.8241 11.1734 13 10.5933 13 10C12.999 9.20464 12.6827 8.44213 12.1203 7.87973C11.5579 7.31733 10.7954 7.00095 10 7ZM10 11.8C9.64399 11.8 9.29598 11.6944 8.99997 11.4966C8.70397 11.2989 8.47326 11.0177 8.33702 10.6888C8.20078 10.3599 8.16513 9.998 8.23459 9.64884C8.30404 9.29967 8.47547 8.97894 8.72721 8.72721C8.97894 8.47547 9.29967 8.30404 9.64884 8.23459C9.998 8.16513 10.3599 8.20078 10.6888 8.33702C11.0177 8.47325 11.2989 8.70396 11.4966 8.99997C11.6944 9.29598 11.8 9.64399 11.8 10C11.8 10.4774 11.6104 10.9352 11.2728 11.2728C10.9352 11.6104 10.4774 11.8 10 11.8Z" fill="#3C3C43"/>
</svg>
